<svg id="bdd4e7c2-600a-4203-81b2-ad17cd78737e" data-name="Instagram" xmlns="http://www.w3.org/2000/svg" viewBox="0 0 510 510"><g id="ee2d9998-3523-4825-994c-4a82e93a8e67" data-name="Instagram"><path d="M459,0H51A51.15,51.15,0,0,0,0,51V459a51.15,51.15,0,0,0,51,51H459a51.15,51.15,0,0,0,51-51V51A51.15,51.15,0,0,0,459,0ZM255,153c56.1,0,102,45.9,102,102S311.1,357,255,357,153,311.1,153,255,198.9,153,255,153ZM63.75,459C56.1,459,51,453.9,51,446.25V229.5h53.55C102,237.15,102,247.35,102,255c0,84.15,68.85,153,153,153s153-68.85,153-153c0-7.65,0-17.85-2.55-25.5H459V446.25c0,7.65-5.1,12.75-12.75,12.75H63.75ZM459,114.75c0,7.65-5.1,12.75-12.75,12.75h-51c-7.65,0-12.75-5.1-12.75-12.75v-51c0-7.65,5.1-12.75,12.75-12.75h51C453.9,51,459,56.1,459,63.75v51Z" style="fill:#fff028"/></g></svg>