<svg id="232dbf4e-0a98-4872-acbb-1d07d0414813" data-name="Layer 1" xmlns="http://www.w3.org/2000/svg" viewBox="0 0 383.59 166.56"><path fill="#FFF028" id="d9d801c5-d5e6-4f1e-a66a-288c24b720f3" data-name="rect2986" d="M235.25,0a83.26,83.26,0,0,1,82.91,75.88,47.18,47.18,0,1,1,18.25,90.69c-0.84,0-130.66,0-130.78-.06a5.72,5.72,0,0,1-5.09-5.56V11.19c0-2.76,1-4.15,4.53-5.53A84.24,84.24,0,0,1,235.25,0ZM190.88,11a5.24,5.24,0,0,1,5.19,5.19l2.31,106.28-2.31,38.56a5.19,5.19,0,0,1-10.37,0l-2.12-38.59,2.13-106.28A5.25,5.25,0,0,1,190.88,11Zm-16.59,9.19a4.44,4.44,0,0,1,.47,0,4.93,4.93,0,0,1,4.88,4.84l2.06,97.44-2.06,39.13v0a4.86,4.86,0,0,1-9.72,0s-1.84-39.08-1.84-39.16l1.84-97.41A5,5,0,0,1,174.28,20.22ZM126.59,31.41a3.89,3.89,0,0,1,3.88,3.84l2.75,87.22-2.75,40a3.89,3.89,0,0,1-7.78,0l-2.41-40,2.41-87.22A3.92,3.92,0,0,1,126.59,31.41Zm15.94,1.88a4.25,4.25,0,0,1,4.22,4.19l2.47,85-2.47,39.66v0a4.22,4.22,0,0,1-8.44,0l-2.22-39.66,2.22-85a4.23,4.23,0,0,1,4.22-4.19h0Zm-31.75,1.28a3.6,3.6,0,0,1,3.56,3.53l2.94,84.38-2.94,40.28v0a3.56,3.56,0,0,1-7.12,0l-2.62-40.28,2.63-84.38a3.58,3.58,0,0,1,3.56-3.53h0Zm47.81,1.5a4.57,4.57,0,0,1,4.53,4.53l2.28,81.88-2.28,39.38a4.53,4.53,0,0,1-9.06.06L152,122.47l2-81.87A4.57,4.57,0,0,1,158.59,36.06Zm-63.5,5.31a3.31,3.31,0,0,1,3.25,3.22l3.16,77.88-3.16,40.69v0a3.24,3.24,0,0,1-6.47,0l-2.81-40.69,2.81-77.88a3.28,3.28,0,0,1,3.22-3.22h0ZM79.53,56.19a3,3,0,0,1,2.91,2.88l3.41,63.38-3.41,41a2.91,2.91,0,0,1-5.81,0l-3-41,3-63.37A3,3,0,0,1,79.53,56.19Zm-30.75,22A2.32,2.32,0,0,1,51,80.44l3.84,42L51,163.06a2.31,2.31,0,0,1-2.25,2.19,2.27,2.27,0,0,1-2.25-2.19l-3.41-40.62,3.41-42A2.3,2.3,0,0,1,48.78,78.22ZM33.59,79.69a2,2,0,0,1,1.91,1.88l4.06,40.88L35.5,161.84a1.92,1.92,0,0,1-3.84,0l-3.56-39.37s3.56-40.86,3.56-40.87A2,2,0,0,1,33.59,79.69Zm30.5,1.25a2.63,2.63,0,0,1,2.59,2.53l3.63,39-3.62,40.94v0a2.66,2.66,0,0,1-2.59,2.53,2.6,2.6,0,0,1-2.56-2.56l-3.22-40.94,3.22-39a2.59,2.59,0,0,1,2.56-2.53h0ZM18.5,86.44A1.68,1.68,0,0,1,20.13,88l4.28,34.47-4.28,33.69a1.66,1.66,0,0,1-1.59,1.53,1.69,1.69,0,0,1-1.62-1.53l-3.78-33.69S16.91,88,16.91,88A1.67,1.67,0,0,1,18.5,86.44ZM4.34,99.63a1.61,1.61,0,0,1,1.53,1.5l3.31,21.31L5.88,143.38a1.62,1.62,0,0,1-1.53,1.5,1.62,1.62,0,0,1-1.56-1.5L0,122.44l2.78-21.31A1.61,1.61,0,0,1,4.34,99.63Z"/></svg>